<mxfile host="Electron" modified="2023-12-29T02:49:13.755Z" agent="Mozilla/5.0 (Windows NT 10.0; Win64; x64) AppleWebKit/537.36 (KHTML, like Gecko) draw.io/21.2.8 Chrome/112.0.5615.165 Electron/24.2.0 Safari/537.36" etag="IperGxPg-NegrrbCaAoK" version="21.2.8" type="device">
  <diagram name="Page-1" id="Dp2LCQyxZGAmDatRVv9P">
    <mxGraphModel dx="1931" dy="666" grid="1" gridSize="10" guides="1" tooltips="1" connect="1" arrows="1" fold="1" page="1" pageScale="1" pageWidth="827" pageHeight="1169" math="0" shadow="0">
      <root>
        <mxCell id="0" />
        <mxCell id="1" parent="0" />
        <mxCell id="cPJQanP_NMV2ZF2t2-Fl-1" value="&lt;font size=&quot;1&quot; style=&quot;&quot; color=&quot;#ffffff&quot; face=&quot;Verdana&quot;&gt;&lt;b style=&quot;font-size: 14px;&quot;&gt;6&lt;/b&gt;&lt;/font&gt;" style="ellipse;whiteSpace=wrap;html=1;aspect=fixed;fillColor=#000000;" vertex="1" parent="1">
          <mxGeometry x="20" y="200" width="40" height="40" as="geometry" />
        </mxCell>
        <mxCell id="cPJQanP_NMV2ZF2t2-Fl-2" value="&lt;font size=&quot;1&quot; style=&quot;&quot; color=&quot;#ffffff&quot; face=&quot;Verdana&quot;&gt;&lt;b style=&quot;font-size: 14px;&quot;&gt;5&lt;/b&gt;&lt;/font&gt;" style="ellipse;whiteSpace=wrap;html=1;aspect=fixed;fillColor=#000000;" vertex="1" parent="1">
          <mxGeometry x="-50" y="261" width="40" height="40" as="geometry" />
        </mxCell>
        <mxCell id="cPJQanP_NMV2ZF2t2-Fl-3" value="" style="endArrow=classic;html=1;rounded=0;exitX=0;exitY=1;exitDx=0;exitDy=0;entryX=1;entryY=0;entryDx=0;entryDy=0;" edge="1" parent="1" source="cPJQanP_NMV2ZF2t2-Fl-1" target="cPJQanP_NMV2ZF2t2-Fl-2">
          <mxGeometry width="50" height="50" relative="1" as="geometry">
            <mxPoint x="289" y="330" as="sourcePoint" />
            <mxPoint x="-16.857864376268935" y="265.85786437626894" as="targetPoint" />
          </mxGeometry>
        </mxCell>
        <mxCell id="cPJQanP_NMV2ZF2t2-Fl-4" value="&lt;font face=&quot;Verdana&quot; color=&quot;#ffffff&quot;&gt;&lt;span style=&quot;font-size: 14px;&quot;&gt;&lt;b&gt;9&lt;/b&gt;&lt;/span&gt;&lt;/font&gt;" style="ellipse;whiteSpace=wrap;html=1;aspect=fixed;fillColor=#e51400;fontColor=#ffffff;strokeColor=#B20000;" vertex="1" parent="1">
          <mxGeometry x="140" y="260" width="40" height="40" as="geometry" />
        </mxCell>
        <mxCell id="cPJQanP_NMV2ZF2t2-Fl-5" value="" style="endArrow=classic;html=1;rounded=0;exitX=1;exitY=1;exitDx=0;exitDy=0;" edge="1" parent="1" source="cPJQanP_NMV2ZF2t2-Fl-1" target="cPJQanP_NMV2ZF2t2-Fl-4">
          <mxGeometry width="50" height="50" relative="1" as="geometry">
            <mxPoint x="289" y="330" as="sourcePoint" />
            <mxPoint x="138.4000000000001" y="271" as="targetPoint" />
          </mxGeometry>
        </mxCell>
        <mxCell id="cPJQanP_NMV2ZF2t2-Fl-6" value="&lt;font size=&quot;1&quot; style=&quot;&quot; color=&quot;#ffffff&quot; face=&quot;Verdana&quot;&gt;&lt;b style=&quot;font-size: 14px;&quot;&gt;8&lt;/b&gt;&lt;/font&gt;" style="ellipse;whiteSpace=wrap;html=1;aspect=fixed;fillColor=#000000;" vertex="1" parent="1">
          <mxGeometry x="90" y="310" width="40" height="40" as="geometry" />
        </mxCell>
        <mxCell id="cPJQanP_NMV2ZF2t2-Fl-7" value="&lt;font size=&quot;1&quot; style=&quot;&quot; color=&quot;#ffffff&quot; face=&quot;Verdana&quot;&gt;&lt;b style=&quot;font-size: 14px;&quot;&gt;7&lt;/b&gt;&lt;/font&gt;" style="ellipse;whiteSpace=wrap;html=1;aspect=fixed;fillColor=#e51400;fontColor=#ffffff;strokeColor=#B20000;" vertex="1" parent="1">
          <mxGeometry x="40" y="360" width="40" height="40" as="geometry" />
        </mxCell>
        <mxCell id="cPJQanP_NMV2ZF2t2-Fl-8" value="" style="endArrow=classic;html=1;rounded=0;exitX=0;exitY=1;exitDx=0;exitDy=0;entryX=1;entryY=0;entryDx=0;entryDy=0;" edge="1" parent="1" source="cPJQanP_NMV2ZF2t2-Fl-6" target="cPJQanP_NMV2ZF2t2-Fl-7">
          <mxGeometry width="50" height="50" relative="1" as="geometry">
            <mxPoint x="360" y="460" as="sourcePoint" />
            <mxPoint x="410" y="410" as="targetPoint" />
          </mxGeometry>
        </mxCell>
        <mxCell id="cPJQanP_NMV2ZF2t2-Fl-9" value="" style="endArrow=classic;html=1;rounded=0;exitX=0;exitY=1;exitDx=0;exitDy=0;entryX=1;entryY=0;entryDx=0;entryDy=0;" edge="1" parent="1" source="cPJQanP_NMV2ZF2t2-Fl-4" target="cPJQanP_NMV2ZF2t2-Fl-6">
          <mxGeometry width="50" height="50" relative="1" as="geometry">
            <mxPoint x="280" y="350" as="sourcePoint" />
            <mxPoint x="330" y="300" as="targetPoint" />
          </mxGeometry>
        </mxCell>
        <mxCell id="cPJQanP_NMV2ZF2t2-Fl-10" value="" style="endArrow=classic;html=1;rounded=0;dashed=1;strokeWidth=2;" edge="1" parent="1">
          <mxGeometry width="50" height="50" relative="1" as="geometry">
            <mxPoint x="215" y="296" as="sourcePoint" />
            <mxPoint x="295" y="296" as="targetPoint" />
          </mxGeometry>
        </mxCell>
        <mxCell id="cPJQanP_NMV2ZF2t2-Fl-11" value="&lt;font style=&quot;font-size: 16px;&quot;&gt;变色&lt;/font&gt;" style="text;html=1;align=center;verticalAlign=middle;resizable=0;points=[];autosize=1;strokeColor=none;fillColor=none;" vertex="1" parent="1">
          <mxGeometry x="220" y="266" width="60" height="30" as="geometry" />
        </mxCell>
        <mxCell id="cPJQanP_NMV2ZF2t2-Fl-12" value="&lt;font size=&quot;1&quot; style=&quot;&quot; color=&quot;#ffffff&quot; face=&quot;Verdana&quot;&gt;&lt;b style=&quot;font-size: 14px;&quot;&gt;6&lt;/b&gt;&lt;/font&gt;" style="ellipse;whiteSpace=wrap;html=1;aspect=fixed;fillColor=#e51400;fontColor=#ffffff;strokeColor=#B20000;" vertex="1" parent="1">
          <mxGeometry x="380" y="200" width="40" height="40" as="geometry" />
        </mxCell>
        <mxCell id="cPJQanP_NMV2ZF2t2-Fl-13" value="&lt;font size=&quot;1&quot; style=&quot;&quot; color=&quot;#ffffff&quot; face=&quot;Verdana&quot;&gt;&lt;b style=&quot;font-size: 14px;&quot;&gt;5&lt;/b&gt;&lt;/font&gt;" style="ellipse;whiteSpace=wrap;html=1;aspect=fixed;fillColor=#000000;" vertex="1" parent="1">
          <mxGeometry x="310" y="265" width="40" height="40" as="geometry" />
        </mxCell>
        <mxCell id="cPJQanP_NMV2ZF2t2-Fl-14" value="" style="endArrow=classic;html=1;rounded=0;exitX=0;exitY=1;exitDx=0;exitDy=0;entryX=1;entryY=0;entryDx=0;entryDy=0;" edge="1" parent="1" source="cPJQanP_NMV2ZF2t2-Fl-12" target="cPJQanP_NMV2ZF2t2-Fl-13">
          <mxGeometry width="50" height="50" relative="1" as="geometry">
            <mxPoint x="649" y="330" as="sourcePoint" />
            <mxPoint x="343.14213562373106" y="265.85786437626894" as="targetPoint" />
          </mxGeometry>
        </mxCell>
        <mxCell id="cPJQanP_NMV2ZF2t2-Fl-15" value="&lt;font face=&quot;Verdana&quot; color=&quot;#ffffff&quot;&gt;&lt;span style=&quot;font-size: 14px;&quot;&gt;&lt;b&gt;9&lt;/b&gt;&lt;/span&gt;&lt;/font&gt;" style="ellipse;whiteSpace=wrap;html=1;aspect=fixed;fillColor=#090706;fontColor=#ffffff;strokeColor=#131111;" vertex="1" parent="1">
          <mxGeometry x="500" y="260" width="40" height="40" as="geometry" />
        </mxCell>
        <mxCell id="cPJQanP_NMV2ZF2t2-Fl-16" value="" style="endArrow=classic;html=1;rounded=0;exitX=1;exitY=1;exitDx=0;exitDy=0;" edge="1" parent="1" source="cPJQanP_NMV2ZF2t2-Fl-12" target="cPJQanP_NMV2ZF2t2-Fl-15">
          <mxGeometry width="50" height="50" relative="1" as="geometry">
            <mxPoint x="649" y="330" as="sourcePoint" />
            <mxPoint x="498.4000000000001" y="271" as="targetPoint" />
          </mxGeometry>
        </mxCell>
        <mxCell id="cPJQanP_NMV2ZF2t2-Fl-17" value="&lt;font size=&quot;1&quot; style=&quot;&quot; color=&quot;#ffffff&quot; face=&quot;Verdana&quot;&gt;&lt;b style=&quot;font-size: 14px;&quot;&gt;8&lt;/b&gt;&lt;/font&gt;" style="ellipse;whiteSpace=wrap;html=1;aspect=fixed;fillColor=#000000;" vertex="1" parent="1">
          <mxGeometry x="450" y="310" width="40" height="40" as="geometry" />
        </mxCell>
        <mxCell id="cPJQanP_NMV2ZF2t2-Fl-18" value="&lt;font size=&quot;1&quot; style=&quot;&quot; color=&quot;#ffffff&quot; face=&quot;Verdana&quot;&gt;&lt;b style=&quot;font-size: 14px;&quot;&gt;7&lt;/b&gt;&lt;/font&gt;" style="ellipse;whiteSpace=wrap;html=1;aspect=fixed;fillColor=#e51400;fontColor=#ffffff;strokeColor=#B20000;" vertex="1" parent="1">
          <mxGeometry x="400" y="360" width="40" height="40" as="geometry" />
        </mxCell>
        <mxCell id="cPJQanP_NMV2ZF2t2-Fl-19" value="" style="endArrow=classic;html=1;rounded=0;exitX=0;exitY=1;exitDx=0;exitDy=0;entryX=1;entryY=0;entryDx=0;entryDy=0;" edge="1" parent="1" source="cPJQanP_NMV2ZF2t2-Fl-17" target="cPJQanP_NMV2ZF2t2-Fl-18">
          <mxGeometry width="50" height="50" relative="1" as="geometry">
            <mxPoint x="720" y="460" as="sourcePoint" />
            <mxPoint x="770" y="410" as="targetPoint" />
          </mxGeometry>
        </mxCell>
        <mxCell id="cPJQanP_NMV2ZF2t2-Fl-20" value="" style="endArrow=classic;html=1;rounded=0;exitX=0;exitY=1;exitDx=0;exitDy=0;entryX=1;entryY=0;entryDx=0;entryDy=0;" edge="1" parent="1" source="cPJQanP_NMV2ZF2t2-Fl-15" target="cPJQanP_NMV2ZF2t2-Fl-17">
          <mxGeometry width="50" height="50" relative="1" as="geometry">
            <mxPoint x="640" y="350" as="sourcePoint" />
            <mxPoint x="690" y="300" as="targetPoint" />
          </mxGeometry>
        </mxCell>
        <mxCell id="cPJQanP_NMV2ZF2t2-Fl-30" value="&lt;font size=&quot;1&quot; style=&quot;&quot; color=&quot;#ffffff&quot; face=&quot;Verdana&quot;&gt;&lt;b style=&quot;font-size: 14px;&quot;&gt;6&lt;/b&gt;&lt;/font&gt;" style="ellipse;whiteSpace=wrap;html=1;aspect=fixed;fillColor=#e51400;fontColor=#ffffff;strokeColor=#B20000;" vertex="1" parent="1">
          <mxGeometry x="290" y="515" width="40" height="40" as="geometry" />
        </mxCell>
        <mxCell id="cPJQanP_NMV2ZF2t2-Fl-31" value="&lt;font size=&quot;1&quot; style=&quot;&quot; color=&quot;#ffffff&quot; face=&quot;Verdana&quot;&gt;&lt;b style=&quot;font-size: 14px;&quot;&gt;5&lt;/b&gt;&lt;/font&gt;" style="ellipse;whiteSpace=wrap;html=1;aspect=fixed;fillColor=#000000;" vertex="1" parent="1">
          <mxGeometry x="220" y="580" width="40" height="40" as="geometry" />
        </mxCell>
        <mxCell id="cPJQanP_NMV2ZF2t2-Fl-32" value="" style="endArrow=classic;html=1;rounded=0;exitX=0;exitY=1;exitDx=0;exitDy=0;entryX=1;entryY=0;entryDx=0;entryDy=0;" edge="1" parent="1" source="cPJQanP_NMV2ZF2t2-Fl-30" target="cPJQanP_NMV2ZF2t2-Fl-31">
          <mxGeometry width="50" height="50" relative="1" as="geometry">
            <mxPoint x="559" y="650" as="sourcePoint" />
            <mxPoint x="253.14213562373106" y="585.8578643762689" as="targetPoint" />
          </mxGeometry>
        </mxCell>
        <mxCell id="cPJQanP_NMV2ZF2t2-Fl-33" value="&lt;font size=&quot;1&quot; style=&quot;&quot; color=&quot;#ffffff&quot; face=&quot;Verdana&quot;&gt;&lt;b style=&quot;font-size: 14px;&quot;&gt;8&lt;/b&gt;&lt;/font&gt;" style="ellipse;whiteSpace=wrap;html=1;aspect=fixed;fillColor=#000000;" vertex="1" parent="1">
          <mxGeometry x="350" y="580" width="40" height="40" as="geometry" />
        </mxCell>
        <mxCell id="cPJQanP_NMV2ZF2t2-Fl-34" value="&lt;font size=&quot;1&quot; style=&quot;&quot; color=&quot;#ffffff&quot; face=&quot;Verdana&quot;&gt;&lt;b style=&quot;font-size: 14px;&quot;&gt;7&lt;/b&gt;&lt;/font&gt;" style="ellipse;whiteSpace=wrap;html=1;aspect=fixed;fillColor=#e51400;fontColor=#ffffff;strokeColor=#B20000;" vertex="1" parent="1">
          <mxGeometry x="290" y="640" width="40" height="40" as="geometry" />
        </mxCell>
        <mxCell id="cPJQanP_NMV2ZF2t2-Fl-35" value="" style="endArrow=classic;html=1;rounded=0;exitX=0;exitY=1;exitDx=0;exitDy=0;entryX=1;entryY=0;entryDx=0;entryDy=0;" edge="1" parent="1" source="cPJQanP_NMV2ZF2t2-Fl-33" target="cPJQanP_NMV2ZF2t2-Fl-34">
          <mxGeometry width="50" height="50" relative="1" as="geometry">
            <mxPoint x="661" y="728" as="sourcePoint" />
            <mxPoint x="711" y="678" as="targetPoint" />
          </mxGeometry>
        </mxCell>
        <mxCell id="cPJQanP_NMV2ZF2t2-Fl-36" value="" style="endArrow=classic;html=1;rounded=0;exitX=1;exitY=1;exitDx=0;exitDy=0;entryX=0;entryY=0;entryDx=0;entryDy=0;" edge="1" parent="1" source="cPJQanP_NMV2ZF2t2-Fl-30" target="cPJQanP_NMV2ZF2t2-Fl-33">
          <mxGeometry width="50" height="50" relative="1" as="geometry">
            <mxPoint x="330" y="510" as="sourcePoint" />
            <mxPoint x="380" y="460" as="targetPoint" />
          </mxGeometry>
        </mxCell>
        <mxCell id="cPJQanP_NMV2ZF2t2-Fl-37" value="&lt;font face=&quot;Verdana&quot; color=&quot;#ffffff&quot;&gt;&lt;span style=&quot;font-size: 14px;&quot;&gt;&lt;b&gt;9&lt;/b&gt;&lt;/span&gt;&lt;/font&gt;" style="ellipse;whiteSpace=wrap;html=1;aspect=fixed;fillColor=#090706;fontColor=#ffffff;strokeColor=#131111;" vertex="1" parent="1">
          <mxGeometry x="360" y="450" width="41" height="41" as="geometry" />
        </mxCell>
        <mxCell id="cPJQanP_NMV2ZF2t2-Fl-38" value="" style="endArrow=classic;html=1;rounded=0;exitX=0;exitY=1;exitDx=0;exitDy=0;entryX=1;entryY=0;entryDx=0;entryDy=0;" edge="1" parent="1" source="cPJQanP_NMV2ZF2t2-Fl-37" target="cPJQanP_NMV2ZF2t2-Fl-30">
          <mxGeometry width="50" height="50" relative="1" as="geometry">
            <mxPoint x="365" y="500" as="sourcePoint" />
            <mxPoint x="415" y="450" as="targetPoint" />
          </mxGeometry>
        </mxCell>
        <mxCell id="cPJQanP_NMV2ZF2t2-Fl-39" value="" style="endArrow=classic;html=1;rounded=0;dashed=1;strokeWidth=2;" edge="1" parent="1">
          <mxGeometry width="50" height="50" relative="1" as="geometry">
            <mxPoint x="-17" y="575" as="sourcePoint" />
            <mxPoint x="173" y="575" as="targetPoint" />
          </mxGeometry>
        </mxCell>
        <mxCell id="cPJQanP_NMV2ZF2t2-Fl-40" value="&lt;span style=&quot;font-size: 16px;&quot;&gt;以父节点为旋转点，左旋&lt;/span&gt;" style="text;html=1;align=center;verticalAlign=middle;resizable=0;points=[];autosize=1;strokeColor=none;fillColor=none;" vertex="1" parent="1">
          <mxGeometry x="-29" y="540" width="200" height="30" as="geometry" />
        </mxCell>
      </root>
    </mxGraphModel>
  </diagram>
</mxfile>
